<svg id="katman_1" data-name="katman 1" xmlns="http://www.w3.org/2000/svg" viewBox="0 0 111.58 35.02"><defs><style>.cls-1{fill:#d93a37;}</style></defs><title>HardworderSWG</title><path d="M185,200.43a10.47,10.47,0,1,0-15.89-1.29l-3.73,3.73,2.36,2.36,3.73-3.73A10.48,10.48,0,0,0,185,200.43Zm-13.63-1.18a8.8,8.8,0,1,1,12.45,0A8.81,8.81,0,0,1,171.36,199.24Z" transform="translate(-153.03 -182.55)"/><rect class="cls-1" x="152.42" y="206.36" width="16.56" height="7.09" rx="1.67" ry="1.67" transform="translate(-254.4 -7.39) rotate(-45.01)"/><rect x="154.1" y="206.36" width="13.21" height="7.09" transform="translate(-254.39 -7.44) rotate(-45)"/><path d="M176,193.93v3.47a.6.6,0,0,1-1.2,0v-8.13a.6.6,0,1,1,1.2,0v3.47h3.53v-3.47a.6.6,0,1,1,1.2,0v8.13a.6.6,0,1,1-1.2,0v-3.47Z" transform="translate(-153.03 -182.55)"/><path d="M191.78,192.69c-.33,0-.79-.07-.79-.58s.41-.58.79-.58h1.58a1.82,1.82,0,0,1,1.49.52,1.67,1.67,0,0,1,.52,1.37l.12,3.91c0,.34-.16.67-.54.67a.59.59,0,0,1-.59-.58l-.79.41a1,1,0,0,1-.71.17h-1.1a1.8,1.8,0,0,1-1.31-.41,1.61,1.61,0,0,1-.6-1.42v-.5a1.5,1.5,0,0,1,.56-1.28,1.89,1.89,0,0,1,1.34-.43h2.47v-.26c0-.86-.19-1-1-1Zm0,2.42c-.31,0-.77.08-.77.5v.77c0,.38.47.47.74.47H193l1.27-.66v-.25c0-.64-.18-.83-.82-.83Z" transform="translate(-153.03 -182.55)"/><path d="M198.49,192.39c0-.42,0-.85.58-.85s.58.38.58.77v.47l.9-.74a1.73,1.73,0,0,1,1-.49h.92a1.52,1.52,0,0,1,1.13.46,1.68,1.68,0,0,1,.52,1.31c0,.4-.07.8-.56.8s-.59-.34-.59-.71a.76.76,0,0,0-.12-.5c-.14-.2-.42-.2-.7-.2h-.34a.89.89,0,0,0-.58.28l-1.61,1.33v2.91c0,.4-.08.79-.58.79s-.58-.4-.58-.79Z" transform="translate(-153.03 -182.55)"/><path d="M210.29,191.54a1.64,1.64,0,0,1,1.14.64l.19.2V190c0-.4.08-.79.58-.79s.58.4.58.79v7.24c0,.4-.08.8-.58.8s-.58-.38-.58-.77v-.07l-.25.25a1.83,1.83,0,0,1-1.1.59h-1.12a1.77,1.77,0,0,1-1-.41l-.4-.33a1.49,1.49,0,0,1-.64-1.33v-2.31a1.49,1.49,0,0,1,.64-1.33l.4-.34a1.45,1.45,0,0,1,1.1-.41Zm-2,3.93c0,.32,0,.73.18.88l.35.28a.76.76,0,0,0,.43.23h.82a1,1,0,0,0,.56-.29l.66-.56c.17-.14.34-.29.34-.5V194c0-.22-.17-.36-.34-.5l-.66-.56a1,1,0,0,0-.56-.29h-.82a.76.76,0,0,0-.43.23l-.35.28c-.18.14-.18.55-.18.88Z" transform="translate(-153.03 -182.55)"/><path class="cls-1" d="M219.34,198c-.41,0-.65-.08-.73-.52h0c-.08.43-.32.52-.73.52h-.9a.65.65,0,0,1-.73-.43l-.42-.73a.84.84,0,0,1-.17-.61v-7a.6.6,0,0,1,1.2,0v7l.32.58h.52l.32-.58v-3.78c0-.37.17-.71.6-.71s.6.34.6.71v3.78l.32.58H220l.32-.58v-7a.6.6,0,1,1,1.2,0v7a.84.84,0,0,1-.17.61l-.42.73a.65.65,0,0,1-.73.43Z" transform="translate(-153.03 -182.55)"/><path class="cls-1" d="M224.41,193.68a1.55,1.55,0,0,1,.73-1.5,2.06,2.06,0,0,1,1.63-.65h.91a2.06,2.06,0,0,1,1.63.65,1.55,1.55,0,0,1,.73,1.5v2.17a1.67,1.67,0,0,1-.79,1.55,1.92,1.92,0,0,1-1.57.6h-.91a1.92,1.92,0,0,1-1.57-.6,1.67,1.67,0,0,1-.79-1.55Zm1.15,2.17c0,.24.08.4.42.68a1,1,0,0,0,.79.31h.91a1,1,0,0,0,.79-.31c.34-.29.42-.44.42-.68v-2.17c0-.24-.08-.4-.42-.68a1,1,0,0,0-.79-.31h-.91a1,1,0,0,0-.79.31c-.34.29-.42.44-.42.68Z" transform="translate(-153.03 -182.55)"/><path class="cls-1" d="M233.05,192.39c0-.42,0-.85.58-.85s.58.38.58.77v.47l.9-.74a1.73,1.73,0,0,1,1-.49H237a1.52,1.52,0,0,1,1.13.46,1.68,1.68,0,0,1,.52,1.31c0,.4-.07.8-.56.8s-.59-.34-.59-.71a.76.76,0,0,0-.12-.5c-.14-.2-.42-.2-.7-.2h-.34a.89.89,0,0,0-.58.28l-1.61,1.33v2.91c0,.4-.08.79-.58.79s-.58-.4-.58-.79Z" transform="translate(-153.03 -182.55)"/><path class="cls-1" d="M244.85,191.54a1.64,1.64,0,0,1,1.14.64l.19.2V190c0-.4.08-.79.58-.79s.58.4.58.79v7.24c0,.4-.08.8-.58.8s-.58-.38-.58-.77v-.07l-.25.25a1.83,1.83,0,0,1-1.1.59h-1.12a1.77,1.77,0,0,1-1-.41l-.4-.33a1.49,1.49,0,0,1-.64-1.33v-2.31a1.49,1.49,0,0,1,.64-1.33l.4-.34a1.45,1.45,0,0,1,1.1-.41Zm-2,3.93c0,.32,0,.73.18.88l.35.28a.76.76,0,0,0,.43.23h.82a1,1,0,0,0,.56-.29l.66-.56c.17-.14.34-.29.34-.5V194c0-.22-.17-.36-.34-.5l-.66-.56a1,1,0,0,0-.56-.29h-.82a.76.76,0,0,0-.43.23l-.35.28c-.18.14-.18.55-.18.88Z" transform="translate(-153.03 -182.55)"/><path class="cls-1" d="M252.44,198a1.23,1.23,0,0,1-1-.31l-.49-.43a1.43,1.43,0,0,1-.59-1.3v-2.22a1.52,1.52,0,0,1,.56-1.38l.41-.35a1.55,1.55,0,0,1,1.27-.48h1.05a1.65,1.65,0,0,1,1.27.42l.47.37a1.63,1.63,0,0,1,.6,1.5v.92c0,.66-.11.85-.79.85h-3.69V196a.56.56,0,0,0,.17.34l.29.31a1,1,0,0,0,.77.22h2.47c.38,0,.79.08.79.58s-.46.58-.79.58Zm-1-3.55h3.33v-.7c0-.22,0-.4-.14-.54l-.44-.38a.82.82,0,0,0-.55-.14h-1a.93.93,0,0,0-.59.13l-.4.29a.52.52,0,0,0-.24.53Z" transform="translate(-153.03 -182.55)"/><path class="cls-1" d="M259,192.39c0-.42,0-.85.58-.85s.58.38.58.77v.47l.9-.74a1.73,1.73,0,0,1,1-.49H263a1.52,1.52,0,0,1,1.13.46,1.68,1.68,0,0,1,.52,1.31c0,.4-.07.8-.56.8s-.59-.34-.59-.71a.76.76,0,0,0-.12-.5c-.14-.2-.42-.2-.7-.2h-.34a.89.89,0,0,0-.58.28l-1.61,1.33v2.91c0,.4-.08.79-.58.79s-.58-.4-.58-.79Z" transform="translate(-153.03 -182.55)"/></svg>