<svg id="katman_1" data-name="katman 1" xmlns="http://www.w3.org/2000/svg" viewBox="0 0 318.24 99.88"><defs><style>.cls-1{fill:#fff;}.cls-2{fill:#d93a37;}</style></defs><title>Hardworder-Logo-beyaz-kırmizi</title><path class="cls-1" d="M182,251a29.87,29.87,0,1,0-45.32-3.67L126.08,258l6.74,6.74,10.63-10.63A29.89,29.89,0,0,0,182,251Zm-38.87-3.37a25.1,25.1,0,1,1,35.5,0A25.12,25.12,0,0,1,143.16,247.66Z" transform="translate(-90.88 -200.06)"/><path class="cls-2" d="M106.58,298.55a4.77,4.77,0,0,1-6.74,0L92.27,291a4.77,4.77,0,0,1,0-6.75l26.66-26.65a4.77,4.77,0,0,1,6.75,0l7.55,7.56a4.77,4.77,0,0,1,0,6.74Z" transform="translate(-90.88 -200.06)"/><rect class="cls-1" x="93.91" y="267.95" width="37.69" height="20.23" transform="translate(-254.48 -38.89) rotate(-45)"/><path class="cls-1" d="M156.45,232.52v9.89a1.71,1.71,0,1,1-3.42,0V219.21a1.71,1.71,0,0,1,3.42,0v9.89h10.06v-9.89a1.71,1.71,0,0,1,3.42,0V242.4a1.71,1.71,0,1,1-3.42,0v-9.89Z" transform="translate(-90.88 -200.06)"/><path class="cls-1" d="M201.41,229c-1,0-2.26-.2-2.26-1.64s1.16-1.64,2.26-1.64h4.52a5.19,5.19,0,0,1,4.24,1.47,4.75,4.75,0,0,1,1.47,3.9L212,242.2c0,1-.44,1.92-1.54,1.92a1.67,1.67,0,0,1-1.68-1.64l-2.26,1.16a3,3,0,0,1-2,.48h-3.15a5.13,5.13,0,0,1-3.73-1.16,4.59,4.59,0,0,1-1.71-4v-1.44a4.28,4.28,0,0,1,1.61-3.66,5.4,5.4,0,0,1,3.83-1.23h7v-.75c0-2.46-.55-2.87-2.91-2.87Zm0,6.91c-.89,0-2.19.24-2.19,1.44v2.19c0,1.09,1.33,1.33,2.12,1.33h3.62l3.63-1.88v-.72c0-1.81-.51-2.36-2.33-2.36Z" transform="translate(-90.88 -200.06)"/><path class="cls-1" d="M220.54,228.1c0-1.19.14-2.43,1.64-2.43,1.3,0,1.64,1.09,1.64,2.19v1.33l2.57-2.12a4.94,4.94,0,0,1,2.91-1.4h2.63a4.34,4.34,0,0,1,3.21,1.3,4.8,4.8,0,0,1,1.47,3.73c0,1.13-.2,2.29-1.61,2.29-1.2,0-1.68-1-1.68-2a2.17,2.17,0,0,0-.34-1.44c-.41-.58-1.2-.58-2-.58h-1a2.55,2.55,0,0,0-1.64.79l-4.58,3.8v8.31c0,1.13-.24,2.26-1.64,2.26s-1.64-1.13-1.64-2.26Z" transform="translate(-90.88 -200.06)"/><path class="cls-1" d="M254.18,225.67c1.13,0,2.05.62,3.25,1.81l.55.58v-6.91c0-1.13.24-2.26,1.64-2.26s1.64,1.13,1.64,2.26v20.66c0,1.13-.24,2.29-1.64,2.29S258,243,258,241.92v-.21l-.72.72a5.21,5.21,0,0,1-3.14,1.68h-3.18a5.05,5.05,0,0,1-2.8-1.16L247,242a4.26,4.26,0,0,1-1.81-3.8v-6.6a4.25,4.25,0,0,1,1.81-3.8l1.13-1a4.12,4.12,0,0,1,3.15-1.16Zm-5.71,11.22c0,.92,0,2.09.51,2.5l1,.79a2.18,2.18,0,0,0,1.23.65h2.33a2.74,2.74,0,0,0,1.61-.82L257,238.4c.48-.41,1-.82,1-1.44v-4.14c0-.62-.48-1-1-1.44l-1.88-1.61a2.76,2.76,0,0,0-1.61-.82h-2.33a2.17,2.17,0,0,0-1.23.65l-1,.79c-.51.41-.51,1.57-.51,2.5Z" transform="translate(-90.88 -200.06)"/><path class="cls-2" d="M280,244.11c-1.16,0-1.85-.24-2.09-1.47h-.07c-.24,1.23-.92,1.47-2.09,1.47h-2.57a1.86,1.86,0,0,1-2.09-1.23l-1.2-2.09a2.39,2.39,0,0,1-.48-1.75V219.21a1.71,1.71,0,0,1,3.42,0V239l.92,1.64h1.47l.92-1.64V228.27c0-1.06.48-2,1.71-2s1.71,1,1.71,2V239l.92,1.64H282l.92-1.64V219.21a1.71,1.71,0,0,1,3.42,0V239a2.4,2.4,0,0,1-.48,1.75l-1.2,2.09a1.86,1.86,0,0,1-2.09,1.23Z" transform="translate(-90.88 -200.06)"/><path class="cls-2" d="M294.47,231.8c0-2.19.45-2.94,2.09-4.28s2.36-1.85,4.65-1.85h2.6c2.29,0,3,.52,4.65,1.85s2.09,2.09,2.09,4.28V238c0,2.15-.55,3-2.26,4.41a5.47,5.47,0,0,1-4.48,1.71h-2.6a5.46,5.46,0,0,1-4.48-1.71c-1.71-1.44-2.26-2.26-2.26-4.41Zm3.28,6.19c0,.68.24,1.13,1.2,1.95a3,3,0,0,0,2.26.89h2.6a3,3,0,0,0,2.26-.89c1-.82,1.2-1.27,1.2-1.95V231.8c0-.69-.24-1.13-1.2-1.95a3,3,0,0,0-2.26-.89h-2.6a3,3,0,0,0-2.26.89c-1,.82-1.2,1.26-1.2,1.95Z" transform="translate(-90.88 -200.06)"/><path class="cls-2" d="M319.11,228.1c0-1.19.14-2.43,1.64-2.43,1.3,0,1.64,1.09,1.64,2.19v1.33l2.57-2.12a4.94,4.94,0,0,1,2.91-1.4h2.63a4.34,4.34,0,0,1,3.21,1.3,4.8,4.8,0,0,1,1.47,3.73c0,1.13-.2,2.29-1.61,2.29-1.2,0-1.68-1-1.68-2a2.17,2.17,0,0,0-.34-1.44c-.41-.58-1.2-.58-2-.58h-1a2.55,2.55,0,0,0-1.64.79l-4.58,3.8v8.31c0,1.13-.24,2.26-1.64,2.26s-1.64-1.13-1.64-2.26Z" transform="translate(-90.88 -200.06)"/><path class="cls-2" d="M352.75,225.67c1.13,0,2.05.62,3.25,1.81l.55.58v-6.91c0-1.13.24-2.26,1.64-2.26s1.64,1.13,1.64,2.26v20.66c0,1.13-.24,2.29-1.64,2.29s-1.64-1.09-1.64-2.19v-.21l-.72.72a5.21,5.21,0,0,1-3.14,1.68H349.5a5.05,5.05,0,0,1-2.8-1.16l-1.13-1a4.26,4.26,0,0,1-1.81-3.8v-6.6a4.25,4.25,0,0,1,1.81-3.8l1.13-1a4.12,4.12,0,0,1,3.15-1.16ZM347,236.89c0,.92,0,2.09.51,2.5l1,.79a2.18,2.18,0,0,0,1.23.65h2.33a2.74,2.74,0,0,0,1.61-.82l1.88-1.61c.48-.41,1-.82,1-1.44v-4.14c0-.62-.48-1-1-1.44l-1.88-1.61a2.76,2.76,0,0,0-1.61-.82h-2.33a2.17,2.17,0,0,0-1.23.65l-1,.79c-.51.41-.51,1.57-.51,2.5Z" transform="translate(-90.88 -200.06)"/><path class="cls-2" d="M374.42,244.11a3.5,3.5,0,0,1-2.94-.89l-1.4-1.23a4.09,4.09,0,0,1-1.68-3.7V232A4.33,4.33,0,0,1,370,228l1.16-1a4.42,4.42,0,0,1,3.63-1.37h3a4.7,4.7,0,0,1,3.63,1.2l1.33,1.06c1.51,1.2,1.71,2.46,1.71,4.28v2.63c0,1.88-.31,2.43-2.26,2.43H371.69v1.09a1.61,1.61,0,0,0,.48,1l.82.89a2.76,2.76,0,0,0,2.19.62h7c1.09,0,2.26.24,2.26,1.64s-1.3,1.64-2.26,1.64ZM371.69,234h9.51v-2c0-.62,0-1.13-.41-1.54l-1.26-1.09a2.34,2.34,0,0,0-1.57-.41h-2.77a2.65,2.65,0,0,0-1.68.38l-1.13.82a1.5,1.5,0,0,0-.69,1.51Z" transform="translate(-90.88 -200.06)"/><path class="cls-2" d="M393,228.1c0-1.19.14-2.43,1.64-2.43,1.3,0,1.64,1.09,1.64,2.19v1.33l2.57-2.12a4.94,4.94,0,0,1,2.91-1.4h2.63a4.34,4.34,0,0,1,3.21,1.3,4.8,4.8,0,0,1,1.47,3.73c0,1.13-.2,2.29-1.61,2.29-1.2,0-1.68-1-1.68-2a2.17,2.17,0,0,0-.34-1.44c-.41-.58-1.2-.58-2-.58h-1a2.55,2.55,0,0,0-1.64.79l-4.58,3.8v8.31c0,1.13-.24,2.26-1.64,2.26S393,243,393,241.85Z" transform="translate(-90.88 -200.06)"/></svg>